<?xml version="1.0" encoding="utf-8"?>
<!-- Generator: Adobe Illustrator 22.0.1, SVG Export Plug-In . SVG Version: 6.00 Build 0)  -->
<svg version="1.1" id="Layer_1" xmlns:x="&ns_extend;" xmlns:i="&ns_ai;" xmlns:graph="&ns_graphs;"
	 xmlns="http://www.w3.org/2000/svg" xmlns:xlink="http://www.w3.org/1999/xlink" x="0px" y="0px" viewBox="0 0 1275.6 1077.2"
	 style="enable-background:new 0 0 1275.6 1077.2;" xml:space="preserve">
<style type="text/css">
	.st0{fill:#FFFFFF;}
</style>
<metadata>
	<sfw  xmlns="&ns_sfw;">
		<slices></slices>
		<sliceSourceBounds  bottomLeftOrigin="true" height="74.2" width="213.7" x="531.8" y="501"></sliceSourceBounds>
	</sfw>
</metadata>
<g>
	<path d="M531.8,576.2c0-24.8,0-49.5,0-74.2c71.3,0,142.5,0,213.7,0c0,24.7,0,49.5,0,74.2C674.3,576.2,603,576.2,531.8,576.2z
		 M564.4,573.6c0.7-0.1,1.4-0.2,2.2-0.2c0.6-2.1,1.2-4.1,1.7-6.2c0.4-1.9,0.3-4,1.1-5.6c4.3-8.4,4.4-16.7-0.7-24.6
		c-3.3-5.1-7.4-9.7-11.7-14c-6.4-6.4-13.2-12.3-19.9-18.5c0.1-0.1-0.4,0.4-0.5,0.9c-2.4,9.5-4,19.1-3.1,28.9
		c1.3,15.5,8.7,24.8,22.6,28.6C561.4,564.3,566.9,565.2,564.4,573.6z M580.8,518c3.2,3,3.2,16.2,0,19.5c5.7,0,11,0,16.7,0
		c0.1-1.6,0.2-3.1,0.4-6c-3.4,3.2-6,5.9-9.8,3.7c0-2.2,0-4.4,0-7.6c2,0.8,3.4,1.5,4.8,1.9c0.7,0.2,2.1,0.1,2.1,0
		c0.2-1.5,0.2-2.9,0.1-4.4c0-0.1-1.5-0.4-2.1-0.2c-1.6,0.5-3,1.1-5,1.9c0-3,0-4.9,0-7.9c3.2,1,6,1.9,8.9,2.7c0-1.1,0-2.4,0-3.8
		C591.6,518,586.3,518,580.8,518z M580.8,563.8c3.3,0,6.1,0,7.9,0c-0.4-3-0.7-5.7-1.1-8.4c2.8-0.4,4.9-0.5,6.9-1.2
		c2.4-0.7,3.9-2.6,3.3-5.1c-0.4-1.6-1.8-4-3.1-4.2c-4.4-0.7-9-0.7-14.4-1C584,547.6,584,560.8,580.8,563.8z M621.5,537.5
		c1.6,0,4.1,0,5.8,0c-0.4-2.2-1-4.3-1.1-6.3c-0.1-7.2-1.4-8.4-8.4-7.3c-0.2,0-0.4-0.2-0.7-0.4c-0.1-2-0.2-4.1-0.4-6.6
		c-2.2,0.4-4.2,0.7-6.6,1.1c3.4,2.8,3.5,16.3,0.5,19.5c2.7,0,5.3,0,8.2,0c-3.1-3.4-1.7-7.1-1.5-10.5c0-0.5,1.5-1.3,2.3-1.4
		c0.6-0.1,1.8,0.8,1.9,1.3C621.6,530.3,621.5,533.8,621.5,537.5z M717.6,564c-0.5-1.9-1-3.7-1.3-5.5c-0.2-1,0-2,0-3
		c-0.1-4.5-1.9-6.1-6.4-5.4c-0.8,0.1-1.6,0.3-2.7,0.5c0-2.5,0-4.5,0-7c-2.3,0.3-4.3,0.6-6.8,0.9c3.4,2.9,3.4,16.7,0.3,19.5
		c2.8,0,5.4,0,8,0c-2.4-3.5-1.3-7.1-1.1-10.5c0-0.5,1.8-1.2,2.7-1.3c0.5,0,1.5,1.1,1.5,1.7c0,3.4-0.2,6.8-0.3,10.1
		C713.2,564,715.7,564,717.6,564z M727.9,550.5c3.9,3.1,4,16.8,0.7,19.8c3,0,5.8,0,7.9,0c-0.6-2.1-1.2-3.9-1.8-6.3
		c1.9,0.2,3,0.4,4.1,0.4c3.6,0,5.6-2.3,5.8-6.8c0.2-4.8-1.5-7.6-5.1-7.7C735.9,549.9,732.4,550.3,727.9,550.5z M689.4,537.6
		c2.9,0,5.8,0,8.3,0c-2.9-5.8-0.8-11.7-1.5-17.5c0.4-0.2,0.7-0.5,1.1-0.7c1.8,1.2,3.7,2.4,6.2,4c-0.2-2.5-0.4-3.9-0.5-5.5
		c-6.2,0-12.1,0-18.3,0c-0.1,1.7-0.3,3.2-0.4,4.8c0.4,0.2,0.8,0.4,1.1,0.6c0.7-0.9,1.2-2,2.1-2.5c1-0.6,2.3-0.7,4.2-1.2
		C690.3,525.9,693.3,531.9,689.4,537.6z M646.6,564c-0.1-3.5-0.4-6.8-0.2-10.1c0-0.7,1.5-1.7,2.4-1.7c0.7,0,2,1.2,2,1.9
		c0.1,3.3-0.2,6.5-0.3,9.9c1.8,0,4.3,0,6.2,0c-0.5-1.9-1-3.7-1.3-5.5c-0.3-1.7,0.1-3.7-0.6-5.1c-0.6-1.4-2.2-3.2-3.5-3.3
		c-3.8-0.3-7.7,0.2-10.5,0.3c0.4,2.8,1.1,5,1,7.1c-0.1,2.2-0.8,4.3-1.2,6.4C642.6,564,645.2,564,646.6,564z M612.3,564
		c-0.3-2.9-0.7-5.3-0.9-7.7c-0.1-2.3,0.2-5.1-2.6-5.5c-2.8-0.5-5.8,0-8.6,0.4c-0.4,0-0.7,1.6-0.8,2.5c0,0.3,0.9,1.1,1.2,1
		c0.7-0.2,1.2-0.9,1.8-1.3c1.1-0.5,2.3-1.4,3.3-1.3c0.6,0.1,0.9,1.9,1.4,3.1c-2.2,0.3-3.5,0.4-4.9,0.6c-2.5,0.5-4,1.8-3.9,4.6
		c0.2,2.9,2.2,3.9,4.6,3.9C606.4,564.4,609.9,564.1,612.3,564z M667.7,537.9c-0.4-3.1-0.5-5.4-1.1-7.7c-0.6-2.1-1.2-5.3-2.6-5.8
		c-2.4-0.9-5.5-0.3-8.2,0c-0.5,0.1-1,1.5-1.2,2.4c-0.1,0.4,0.7,1.3,0.8,1.3c0.8-0.3,1.5-0.9,2.3-1.3c1-0.5,2.2-1.6,2.9-1.3
		c0.9,0.4,1.3,1.8,2.1,3.1c-2.5,0.4-4.5,0.2-5.8,1.1c-1.5,1-3.3,3-3.3,4.5c0,1.2,2.3,3.3,3.9,3.5
		C661.1,538.2,664.8,537.9,667.7,537.9z M732.1,537.8c-3.7-2.5-1.5-5.8-2.3-8.3c-0.5-1.9-1.2-4.9-2.4-5.2c-2.7-0.6-5.8,0-8.6,0.3
		c-0.4,0-0.6,1.7-0.8,2.6c0,0.3,0.8,1,0.9,0.9c0.7-0.4,1.4-1,2.1-1.4c1-0.5,2.3-1.5,3-1.2c0.8,0.3,1.2,1.9,1.8,3.1
		c-2.4,0.4-4.3,0.2-5.5,1c-1.4,0.9-3.3,2.8-3.2,4.1c0.1,1.4,2.1,3.7,3.5,3.9C724.4,538.2,728.3,537.8,732.1,537.8z M670.8,561.8
		c-6.8,1.1-7.6,0.6-7.4-4.7c2.8,0,5.6,0,8.3,0c0.3-4.5-1.4-6.7-5-7.2c-4-0.5-7.1,1.5-7.9,5.2c-0.9,4.2,1,8.1,4.5,9.1
		C666.8,565.2,669.9,564.2,670.8,561.8z M714.5,535.4c-7.4,0.7-8,0.3-7.4-5c2.7,0,5.5,0,8.3,0c0-4.5-1.7-6.7-5.4-7
		c-3.8-0.4-6.7,1.5-7.6,5.1c-1,4,0.6,7.8,3.9,9.1C709.7,538.8,713.2,537.9,714.5,535.4z M693,564.6c1-0.1,1.8,0,2.2-0.4
		c1.5-1.1,3.8-2.2,4-3.6c0.2-1.2-1.9-2.9-3.2-4.2c-0.7-0.6-1.9-0.6-2.7-1.2c-0.7-0.5-1.3-1.4-1.5-2.2c-0.1-0.4,0.9-1.5,1.3-1.4
		c0.8,0.1,1.6,0.7,2.4,1.2c0.7,0.5,1.3,1.1,2,1.6c0.3-0.5,0.8-1,0.8-1.4c-0.2-0.9-0.6-2.4-1-2.4c-2.6-0.2-5.5-0.6-7.9,0.2
		c-2.6,0.9-2.6,4.5-0.3,6.1c1,0.7,2.3,1,3.3,1.6c1,0.6,1.8,1.4,2.7,2.2c-0.5,0.6-1.2,1.8-1.6,1.7c-1.1-0.1-2.1-0.8-3.1-1.3
		c-0.7-0.4-1.3-1.1-2-1.6c-0.3,0.5-0.9,1.1-0.8,1.4c0.3,0.9,0.7,2.2,1.5,2.6C690.4,564.2,692,564.3,693,564.6z M685.5,550
		c-4.1,0.2-8,0.4-12.5,0.6c3.6,2.5,3.6,10.9,0.7,13.2c2.8,0,5.6,0,8.9,0c-2.6-1.9-3.5-8.6-1.8-10.2c0.4-0.4,1.7,0,2.5,0.1
		c0.6,0.1,1.2,0.6,2.1,1.1C685.5,553.1,685.5,551.8,685.5,550z M614.6,564c3.3,0,5.9,0,8.8,0c-2.8-3.2-2.6-9,0.3-11.2
		c0.9,0.7,1.7,1.3,3.2,2.5c0-2.2,0-3.6,0-5.2c-4.1,0.2-7.9,0.4-12.6,0.7C618,553.5,618,561.2,614.6,564z M669.3,518
		c3.4,2.8,3.4,16.5,0.4,19.5c2.9,0,5.6,0,7.7,0c-3.1-6.6-0.3-13.8-1.8-20.5C673.5,517.3,671.7,517.6,669.3,518z M600.2,523.8
		c0.4,3.1,0.9,5.8,1.1,8.5c0.2,5,3.1,6.8,7.9,4.7c-6-2.4-2.1-7.4-3.3-11c1.5-0.5,2.5-0.8,4.5-1.5c-2.1-0.6-3.2-0.9-3.6-1
		c-0.9-1.6-1.5-2.7-2.1-3.7c-0.7,0.8-1.4,1.6-2.2,2.4C601.4,523,600.4,523.7,600.2,523.8z M635,549.9c-0.2-1.3-0.4-2.5-0.7-4.7
		c-2.3,2.3-4,4.1-5.9,6c3.4,1.4,1.8,4.6,1.9,7.1c0.2,5.3,2.9,7.1,7.8,5c-3.7-1.9-4.3-3.9-3-11.1c1-0.3,2.1-0.6,3.1-1
		c0-0.2-0.1-0.5-0.1-0.7C637.1,550.4,636,550.2,635,549.9z M651.8,535.3c-7.2,1.1-9.1-0.5-7.9-6.6c0.3-1.2,1.3-2.7,2.4-3.3
		c0.5-0.3,2,1.2,3.1,1.8c0.6,0.4,1.3,0.7,2,1c0.3-0.7,1-1.7,0.7-2.2c-0.4-0.9-1.2-1.9-2.1-2.2c-3.1-0.9-6.8-1.5-8.6,1.5
		c-1.4,2.3-1.7,5.9-1.3,8.7c0.4,3.1,3.4,4,6.4,3.9C648.5,537.9,651,538.3,651.8,535.3z M629.2,524.3c3.3,2.8,3.4,9.9,0.5,13.2
		c2.8,0,5.6,0,8.6,0c-4.4-4.2-0.9-9.4-2.8-14.1C633.7,523.7,631.6,524,629.2,524.3z M719,550.8c3.4,2.7,3.4,10.1,0.5,13.2
		c2.9,0,5.7,0,8.6,0c-4.4-4.2-0.8-9.6-2.7-14.2C723.5,550.1,721.6,550.4,719,550.8z M636.6,520.3c-1.4-0.9-2.2-1.8-3.1-1.8
		c-0.6,0-1.3,1.2-1.9,1.8c0.7,0.6,1.4,1.7,2.3,1.8C634.5,522.2,635.3,521.2,636.6,520.3z"/>
	<path class="st0" d="M564.4,573.6c2.5-8.4-3-9.3-8.4-10.7c-14-3.8-21.3-13.2-22.6-28.6c-0.9-9.8,0.8-19.4,3.1-28.9
		c0.1-0.5,0.6-1,0.5-0.9c6.7,6.2,13.5,12.1,19.9,18.5c4.3,4.3,8.4,8.9,11.7,14c5.1,7.8,4.9,16.2,0.7,24.6c-0.8,1.6-0.7,3.7-1.1,5.6
		c-0.5,2.1-1.1,4.1-1.7,6.2C565.8,573.4,565.1,573.5,564.4,573.6z M567.3,559.7c2.9-7.3,2-13.5-1.9-19.2
		c-3.8-5.7-7.9-11.2-11.9-16.8c-0.4-0.5-1.2-0.7-1.8-1c-0.2,0.2-0.4,0.5-0.7,0.7c1.9,3.5,3.8,7,5.7,10.5c-0.2,0.1-0.5,0.3-0.7,0.4
		c-3.1-5.1-6.2-10.3-9.2-15.4c-0.6,0.3-1.1,0.6-1.7,0.9c2.5,5.2,5,10.4,7.5,15.5c-0.2,0.1-0.5,0.3-0.7,0.4
		c-3.2-5.8-6.3-11.6-9.5-17.5c-0.5,0.2-1,0.4-1.5,0.7c1.1,6.3,4.5,11.7,7.2,17.4c-0.3,0.2-0.7,0.3-1,0.5c-2.5-4.9-5-9.8-7.5-14.7
		c-0.4,0.2-0.9,0.4-1.3,0.6c0.6,7.5,4.3,14,8.3,21.4c-3.7-2.7-4.7-7.6-9.9-6.8c6.4,12,13.6,22.6,28,25.2c-0.5-8-3.2-15.2-9.9-20.6
		C561.9,545.3,565,551.7,567.3,559.7z"/>
	<path class="st0" d="M580.8,518c5.6,0,10.8,0,16.1,0c0,1.4,0,2.7,0,3.8c-2.9-0.9-5.6-1.7-8.9-2.7c0,3,0,5,0,7.9
		c1.9-0.8,3.4-1.4,5-1.9c0.7-0.2,2.1,0,2.1,0.2c0.1,1.5,0.1,2.9-0.1,4.4c0,0.1-1.5,0.2-2.1,0c-1.5-0.5-2.9-1.1-4.8-1.9
		c0,3.1,0,5.3,0,7.6c3.8,2.2,6.4-0.5,9.8-3.7c-0.2,2.9-0.3,4.4-0.4,6c-5.7,0-11,0-16.7,0C584,534.2,584,521,580.8,518z"/>
	<path class="st0" d="M580.8,563.8c3.2-3,3.2-16.2-0.5-19.9c5.3,0.3,9.9,0.2,14.4,1c1.3,0.2,2.7,2.6,3.1,4.2
		c0.7,2.5-0.9,4.4-3.3,5.1c-2,0.6-4.1,0.7-6.9,1.2c0.4,2.7,0.7,5.5,1.1,8.4C586.9,563.8,584.1,563.8,580.8,563.8z M588,553.4
		c1.7-0.6,3.6-0.8,4.3-1.7c0.7-1,0.8-3.2,0.1-4.2c-0.7-1-2.6-1.1-4.4-1.8C588,548.5,588,550.5,588,553.4z"/>
	<path class="st0" d="M621.5,537.5c0-3.8,0.1-7.2,0-10.6c0-0.5-1.3-1.4-1.9-1.3c-0.9,0.1-2.3,0.9-2.3,1.4c-0.1,3.4-1.6,7.1,1.5,10.5
		c-2.9,0-5.4,0-8.2,0c3-3.1,2.9-16.7-0.5-19.5c2.4-0.4,4.4-0.7,6.6-1.1c0.1,2.5,0.2,4.6,0.4,6.6c0.3,0.2,0.5,0.4,0.7,0.4
		c7-1.1,8.3,0.1,8.4,7.3c0,2,0.7,4.1,1.1,6.3C625.5,537.5,623,537.5,621.5,537.5z"/>
	<path class="st0" d="M717.6,564c-1.9,0-4.4,0-6.2,0c0.1-3.4,0.3-6.8,0.3-10.1c0-0.6-1-1.7-1.5-1.7c-1,0.1-2.7,0.8-2.7,1.3
		c-0.2,3.4-1.3,7,1.1,10.5c-2.6,0-5.2,0-8,0c3.1-2.8,3.1-16.6-0.3-19.5c2.4-0.3,4.4-0.6,6.8-0.9c0,2.5,0,4.6,0,7
		c1.1-0.2,1.9-0.4,2.7-0.5c4.5-0.7,6.3,0.9,6.4,5.4c0,1-0.1,2,0,3C716.6,560.3,717.1,562.1,717.6,564z"/>
	<path class="st0" d="M727.9,550.5c4.5-0.2,8-0.6,11.5-0.6c3.5,0.1,5.3,2.9,5.1,7.7c-0.2,4.5-2.1,6.8-5.8,6.8
		c-1.1,0-2.2-0.2-4.1-0.4c0.7,2.4,1.2,4.2,1.8,6.3c-2.1,0-4.9,0-7.9,0C731.9,567.3,731.8,553.6,727.9,550.5z M735.1,556.9
		C735.1,556.9,735.1,556.9,735.1,556.9c0,0.9-0.3,1.9,0,2.6c0.5,1.1,1.5,1.9,2.2,2.9c0.7-0.8,2-1.5,2.1-2.4c0.3-1.9,0.3-3.9,0-5.8
		c-0.1-0.8-1.5-2.1-1.9-2c-1,0.4-1.9,1.3-2.5,2.2C734.8,555,735.1,556.1,735.1,556.9z"/>
	<path class="st0" d="M689.4,537.6c3.9-5.7,0.9-11.7,2.3-18.1c-1.9,0.5-3.2,0.6-4.2,1.2c-0.9,0.5-1.4,1.7-2.1,2.5
		c-0.4-0.2-0.8-0.4-1.1-0.6c0.1-1.5,0.2-3.1,0.4-4.8c6.2,0,12.1,0,18.3,0c0.1,1.6,0.3,3,0.5,5.5c-2.5-1.6-4.3-2.8-6.2-4
		c-0.4,0.2-0.7,0.5-1.1,0.7c0.7,5.7-1.4,11.7,1.5,17.5C695.2,537.6,692.3,537.6,689.4,537.6z"/>
	<path class="st0" d="M646.6,564c-1.5,0-4,0-6,0c0.4-2.1,1.2-4.2,1.2-6.4c0.1-2.2-0.6-4.4-1-7.1c2.9-0.1,6.7-0.6,10.5-0.3
		c1.3,0.1,2.9,1.9,3.5,3.3c0.7,1.5,0.3,3.4,0.6,5.1c0.3,1.8,0.8,3.6,1.3,5.5c-1.9,0-4.5,0-6.2,0c0.1-3.3,0.4-6.6,0.3-9.9
		c0-0.7-1.3-1.9-2-1.9c-0.8,0-2.4,1.1-2.4,1.7C646.3,557.2,646.5,560.5,646.6,564z"/>
	<path class="st0" d="M612.3,564c-2.4,0.1-5.9,0.4-9.4,0.4c-2.4,0-4.4-1.1-4.6-3.9c-0.2-2.7,1.4-4.1,3.9-4.6
		c1.3-0.2,2.7-0.4,4.9-0.6c-0.5-1.2-0.9-3-1.4-3.1c-1-0.2-2.2,0.7-3.3,1.3c-0.7,0.3-1.2,1-1.8,1.3c-0.3,0.1-1.2-0.7-1.2-1
		c0.1-0.9,0.4-2.5,0.8-2.5c2.9-0.4,5.8-0.9,8.6-0.4c2.7,0.5,2.4,3.3,2.6,5.5C611.6,558.7,612,561.1,612.3,564z M607.8,557.5
		c-3.7-0.5-5.4,0.1-5,2.6c0.1,0.8,1.4,1.5,2.2,2.2C605.8,561,606.7,559.5,607.8,557.5z"/>
	<path class="st0" d="M667.7,537.9c-2.8,0-6.6,0.4-10.2-0.2c-1.5-0.2-3.9-2.3-3.9-3.5c0-1.5,1.7-3.5,3.3-4.5
		c1.3-0.9,3.3-0.7,5.8-1.1c-0.8-1.3-1.3-2.7-2.1-3.1c-0.7-0.3-1.9,0.8-2.9,1.3c-0.8,0.4-1.5,1-2.3,1.3c-0.1,0-0.9-0.9-0.8-1.3
		c0.2-0.9,0.7-2.3,1.2-2.4c2.8-0.3,5.8-1,8.2,0c1.4,0.6,2.1,3.7,2.6,5.8C667.2,532.5,667.2,534.8,667.7,537.9z M662.1,530.9
		c-2.5-0.3-4.4-0.1-4.3,2.7c0,0.8,1.4,2.3,2.1,2.2C663.3,535.5,661.9,533,662.1,530.9z"/>
	<path class="st0" d="M732.1,537.8c-3.8,0-7.7,0.4-11.5-0.2c-1.4-0.2-3.4-2.5-3.5-3.9c-0.1-1.4,1.8-3.2,3.2-4.1
		c1.2-0.8,3.1-0.6,5.5-1c-0.6-1.2-1-2.7-1.8-3.1c-0.7-0.3-2,0.7-3,1.2c-0.7,0.4-1.4,1-2.1,1.4c-0.1,0.1-0.9-0.6-0.9-0.9
		c0.1-0.9,0.4-2.5,0.8-2.6c2.9-0.4,5.9-1,8.6-0.3c1.1,0.3,1.8,3.3,2.4,5.2C730.5,532,728.4,535.4,732.1,537.8z M726.5,531
		c-3.9-0.7-5.4,0.1-5.1,2.8c0.1,0.8,1.5,1.4,2.3,2.1C724.5,534.4,725.3,533,726.5,531z"/>
	<path class="st0" d="M670.8,561.8c-0.9,2.4-4,3.4-7.6,2.4c-3.5-1-5.4-4.9-4.5-9.1c0.8-3.6,4-5.7,7.9-5.2c3.7,0.5,5.3,2.7,5,7.2
		c-2.7,0-5.5,0-8.3,0C663.2,562.4,664,562.9,670.8,561.8z M668,555.2c0.2-0.3,0.4-0.6,0.6-0.9c-0.9-0.8-2-2.5-2.8-2.4
		c-1.1,0.2-2,1.7-3.8,3.3C664.9,555.2,666.4,555.2,668,555.2z"/>
	<path class="st0" d="M714.5,535.4c-1.3,2.5-4.8,3.4-8.1,2.1c-3.3-1.2-5-5-3.9-9.1c0.9-3.6,3.7-5.5,7.6-5.1c3.7,0.4,5.4,2.5,5.4,7
		c-2.8,0-5.6,0-8.3,0C706.5,535.7,707.1,536.1,714.5,535.4z M706.3,527.6c0.2,0.4,0.4,0.8,0.6,1.1c1.6,0,3.1,0,4.7,0
		c0.2-0.3,0.4-0.5,0.6-0.8c-0.9-0.9-1.8-2.5-2.7-2.5C708.4,525.4,707.3,526.8,706.3,527.6z"/>
	<path class="st0" d="M693,564.6c-1.1-0.3-2.7-0.4-3.9-1c-0.8-0.4-1.2-1.6-1.5-2.6c-0.1-0.3,0.5-0.9,0.8-1.4c0.7,0.5,1.3,1.2,2,1.6
		c1,0.6,2,1.2,3.1,1.3c0.5,0.1,1.1-1.1,1.6-1.7c-0.9-0.7-1.7-1.6-2.7-2.2c-1.1-0.6-2.4-0.9-3.3-1.6c-2.3-1.7-2.3-5.3,0.3-6.1
		c2.4-0.8,5.3-0.4,7.9-0.2c0.4,0,0.9,1.5,1,2.4c0.1,0.4-0.5,1-0.8,1.4c-0.7-0.6-1.3-1.2-2-1.6c-0.7-0.5-1.5-1.1-2.4-1.2
		c-0.4-0.1-1.4,1.1-1.3,1.4c0.2,0.8,0.8,1.7,1.5,2.2c0.8,0.6,2,0.5,2.7,1.2c1.3,1.3,3.4,3,3.2,4.2c-0.2,1.4-2.5,2.5-4,3.6
		C694.8,564.6,694.1,564.5,693,564.6z"/>
	<path class="st0" d="M685.5,550c0,1.8,0,3.1,0,4.9c-1-0.5-1.5-0.9-2.1-1.1c-0.8-0.2-2.1-0.5-2.5-0.1c-1.8,1.6-0.8,8.3,1.8,10.2
		c-3.3,0-6.1,0-8.9,0c2.9-2.3,2.9-10.7-0.7-13.2C677.6,550.4,681.4,550.2,685.5,550z"/>
	<path class="st0" d="M614.6,564c3.4-2.8,3.4-10.4-0.4-13.3c4.7-0.3,8.5-0.5,12.6-0.7c0,1.6,0,3.1,0,5.2c-1.4-1.1-2.3-1.8-3.2-2.5
		c-2.9,2.2-3.1,8-0.3,11.2C620.5,564,617.9,564,614.6,564z"/>
	<path class="st0" d="M669.3,518c2.4-0.4,4.2-0.7,6.2-1c1.6,6.8-1.2,13.9,1.8,20.5c-2.1,0-4.8,0-7.7,0
		C672.7,534.4,672.7,520.8,669.3,518z"/>
	<path class="st0" d="M600.2,523.8c0.2-0.1,1.2-0.8,2.2-1.7c0.8-0.7,1.5-1.6,2.2-2.4c0.6,1,1.2,2.1,2.1,3.7c0.4,0.1,1.5,0.4,3.6,1
		c-2,0.7-3.1,1-4.5,1.5c1.3,3.6-2.7,8.6,3.3,11c-4.8,2.1-7.6,0.3-7.9-4.7C601.1,529.6,600.6,526.9,600.2,523.8z"/>
	<path class="st0" d="M635,549.9c1.1,0.2,2.1,0.5,3.1,0.7c0,0.2,0.1,0.5,0.1,0.7c-1,0.3-2.1,0.6-3.1,1c-1.3,7.2-0.8,9.2,3,11.1
		c-4.9,2.1-7.6,0.3-7.8-5c-0.1-2.6,1.5-5.7-1.9-7.1c1.9-1.9,3.6-3.7,5.9-6C634.6,547.4,634.8,548.6,635,549.9z"/>
	<path class="st0" d="M651.8,535.3c-0.9,3-3.3,2.6-5.3,2.7c-3,0.1-6-0.8-6.4-3.9c-0.4-2.8-0.1-6.4,1.3-8.7c1.8-2.9,5.5-2.4,8.6-1.5
		c0.9,0.3,1.7,1.3,2.1,2.2c0.2,0.5-0.5,1.5-0.7,2.2c-0.7-0.3-1.4-0.6-2-1c-1.1-0.6-2.5-2.1-3.1-1.8c-1.1,0.6-2.2,2-2.4,3.3
		C642.7,534.8,644.6,536.4,651.8,535.3z"/>
	<path class="st0" d="M629.2,524.3c2.4-0.3,4.4-0.6,6.3-0.9c1.8,4.7-1.7,9.9,2.8,14.1c-3,0-5.7,0-8.6,0
		C632.7,534.2,632.6,527,629.2,524.3z"/>
	<path class="st0" d="M719,550.8c2.6-0.4,4.5-0.7,6.4-1c2,4.6-1.7,9.9,2.7,14.2c-3,0-5.7,0-8.6,0C722.5,560.9,722.4,553.5,719,550.8
		z"/>
	<path class="st0" d="M636.6,520.3c-1.3,0.9-2.1,2-2.7,1.8c-0.8-0.2-1.5-1.2-2.3-1.8c0.6-0.7,1.3-1.8,1.9-1.8
		C634.4,518.5,635.2,519.4,636.6,520.3z"/>
	<path d="M567.3,559.7c-2.2-8-5.3-14.3-12.6-17.8c6.7,5.4,9.5,12.6,9.9,20.6c-14.4-2.6-21.6-13.3-28-25.2c5.2-0.8,6.1,4.1,9.9,6.8
		c-4-7.4-7.7-13.9-8.3-21.4c0.4-0.2,0.9-0.4,1.3-0.6c2.5,4.9,5,9.8,7.5,14.7c0.3-0.2,0.7-0.3,1-0.5c-2.8-5.7-6.2-11.1-7.2-17.4
		c0.5-0.2,1-0.4,1.5-0.7c3.2,5.8,6.3,11.6,9.5,17.5c0.2-0.1,0.5-0.3,0.7-0.4c-2.5-5.2-5-10.4-7.5-15.5c0.6-0.3,1.1-0.6,1.7-0.9
		c3.1,5.1,6.2,10.3,9.2,15.4c0.2-0.1,0.5-0.3,0.7-0.4c-1.9-3.5-3.8-7-5.7-10.5c0.2-0.2,0.4-0.5,0.7-0.7c0.6,0.3,1.5,0.5,1.8,1
		c4,5.6,8,11.1,11.9,16.8C569.2,546.2,570.1,552.4,567.3,559.7z"/>
	<path d="M588,553.4c0-2.8,0-4.9,0-7.7c1.8,0.7,3.7,0.8,4.4,1.8c0.7,1,0.6,3.2-0.1,4.2C591.6,552.6,589.7,552.7,588,553.4z"/>
	<path d="M735.1,556.9c0-0.9-0.3-1.9,0.1-2.5c0.5-0.9,1.5-1.8,2.5-2.2c0.3-0.1,1.8,1.2,1.9,2c0.3,1.9,0.3,3.9,0,5.8
		c-0.2,0.9-1.4,1.6-2.1,2.4c-0.8-1-1.7-1.8-2.2-2.9C734.9,558.8,735.1,557.8,735.1,556.9C735.1,556.9,735.1,556.9,735.1,556.9z"/>
	<path d="M607.8,557.5c-1.2,2-2,3.4-2.8,4.9c-0.8-0.7-2.1-1.4-2.2-2.2C602.5,557.6,604.1,557,607.8,557.5z"/>
	<path d="M662.1,530.9c-0.2,2.1,1.2,4.7-2.3,4.9c-0.7,0-2-1.4-2.1-2.2C657.7,530.7,659.6,530.5,662.1,530.9z"/>
	<path d="M726.5,531c-1.1,2-2,3.4-2.8,4.8c-0.8-0.7-2.1-1.3-2.3-2.1C721,531.2,722.6,530.4,726.5,531z"/>
	<path d="M668,555.2c-1.5,0-3.1,0-6,0c1.8-1.6,2.7-3.1,3.8-3.3c0.8-0.1,1.9,1.5,2.8,2.4C668.4,554.6,668.2,554.9,668,555.2z"/>
	<path d="M706.3,527.6c1-0.8,2.1-2.2,3.1-2.1c1,0.1,1.8,1.6,2.7,2.5c-0.2,0.3-0.4,0.5-0.6,0.8c-1.6,0-3.1,0-4.7,0
		C706.7,528.4,706.5,528,706.3,527.6z"/>
</g>
</svg>
